<?xml version="1.0" encoding="utf-8" ?>
<svg xmlns="http://www.w3.org/2000/svg" xmlns:xlink="http://www.w3.org/1999/xlink" width="689" height="689">
	<path fill="#C53C35" transform="scale(0.672852 0.672852)" d="M558.482 461.458Q559.95 461.493 561.378 461.838C563.333 462.299 564.941 463.48 565.899 465.254C567.008 467.305 567.079 469.135 567.026 471.41C566.713 484.756 564.284 498.499 562.875 511.788C561.724 522.648 560.29 547.153 557.456 556.109C556.564 558.926 554.235 560.289 551.739 561.545C551.415 561.557 551.092 561.572 550.768 561.581C548.532 561.637 545.947 561.344 544.426 559.496C543.13 557.921 543.204 555.632 543.185 553.696C543.034 538.811 545.795 523.521 547.394 508.742C548.756 496.153 549.194 483.088 551.794 470.698C552.72 466.284 554.782 463.884 558.482 461.458Z"/>
	<path fill="#C53C35" transform="scale(0.672852 0.672852)" d="M374.351 460.884C374.948 460.846 375.452 460.846 376.046 460.907C377.943 461.102 379.608 461.919 380.772 463.462C382.319 465.515 382.484 468.106 382.543 470.585C382.74 478.928 381.204 487.484 380.196 495.764Q377.56 517.954 374.278 540.057C380.85 539.878 392.407 538.026 398.192 541.37C400.273 542.574 401.758 544.467 402.377 546.794C403.245 550.06 402.533 553.759 400.758 556.604C398.725 559.863 396.281 561.431 392.621 562.314C384.421 562.743 375.423 563.131 367.252 562.473C364.495 562.251 358.765 561.379 357.229 558.68C356.007 556.531 356.24 552.102 356.364 549.606C356.91 538.551 359.163 527.135 360.502 516.124C362.363 500.831 363.136 483.541 367.222 468.767C368.412 464.464 370.671 463.003 374.351 460.884Z"/>
	<path fill="#C53C35" transform="scale(0.672852 0.672852)" d="M155.809 345.656C156.288 345.58 156.758 345.542 157.243 345.504C171.506 344.381 182.709 349.696 193.417 358.849C184.394 354.432 174.094 350.49 163.869 351.674C148.316 353.474 138.644 364.488 129.442 375.981C126.435 371.755 123.129 368.015 119.071 364.759C110.362 357.771 99.6561 354.225 88.4845 355.597C79.932 356.647 71.7351 360.717 66.3907 367.575Q65.9564 368.131 65.5506 368.708Q65.1447 369.285 64.7682 369.882Q64.3916 370.479 64.0454 371.094Q63.6992 371.709 63.3843 372.34Q63.0693 372.971 62.7862 373.618Q62.5032 374.264 62.2529 374.924Q62.0025 375.584 61.7855 376.255Q61.5685 376.926 61.3854 377.608Q61.2022 378.289 61.0533 378.979Q60.9045 379.669 60.7904 380.365Q60.6762 381.061 60.597 381.762Q60.5178 382.464 60.4738 383.168Q60.4298 383.872 60.4211 384.578Q60.4124 385.283 60.439 385.988Q60.4655 386.693 60.5274 387.396Q60.5892 388.099 60.6861 388.798C63.9934 414.25 93.8724 435.357 112.994 449.896Q122.076 456.497 130.907 463.429L126.498 467.296C109.834 459.105 86.7497 440.607 73.1048 427.807C60.7883 416.253 48.0729 401.315 47.6381 383.507C47.4209 374.612 50.5214 365.932 56.7813 359.535C64.6146 351.531 75.7439 347.896 86.7709 347.791C102.512 347.642 113.814 354.652 124.711 365.3C125.629 363.847 126.548 362.386 127.542 360.983C134.311 351.435 144.653 347.432 155.809 345.656Z"/>
	<path fill="#C53C35" transform="scale(0.672852 0.672852)" d="M414.896 461.615C422.673 461.305 430.538 461.477 438.325 461.432C444.602 461.396 451.389 460.869 457.605 461.802C459.372 462.068 461.093 462.495 462.455 463.71C464.506 465.539 465.329 468.403 465.412 471.073C465.517 474.466 464.612 477.801 462.162 480.25C457.615 484.796 449.436 483.587 443.552 483.453C443.339 490.621 442.253 497.997 441.576 505.146L437.651 546.469C437.395 551.305 436.367 556.803 432.915 560.45C431.704 561.729 430.013 562.804 428.178 562.624C426.769 562.486 425.536 561.673 424.6 560.652C422.378 558.228 421.622 554.762 421.435 551.576C420.935 543.071 422.708 534.191 423.681 525.765C425.3 511.735 426.872 497.543 427.586 483.438C423.267 483.575 418.184 484.191 413.973 483.219C411.69 482.693 409.601 481.394 408.413 479.335C406.886 476.687 406.979 473.244 407.792 470.385C409.022 466.057 411.009 463.729 414.896 461.615Z"/>
	<path fill="#5EB99B" transform="scale(0.672852 0.672852)" d="M693.191 460.572C697.254 462.503 701.504 466.967 704.417 470.353C696.201 482.759 675.95 512.066 672.776 524.781C669.826 536.597 669.609 549.441 667.37 561.477C662.867 561.561 656.871 562.339 652.661 560.871C649.49 556.298 655.964 530.28 656.686 523.089L656.747 522.425C656.005 515.432 649.172 499.965 646.518 492.664C643.303 483.82 640.771 475.026 638.787 465.826C642.892 464.199 647.284 463.123 651.524 461.888C658.482 473.519 662.539 487.462 667.333 500.103C674.831 486.392 682.953 472.429 693.191 460.572Z"/>
	<path fill="#5EB99B" transform="scale(0.672852 0.672852)" d="M588.906 462.158Q595.786 461.9 602.671 461.802C608.353 461.754 628.811 460.427 632.578 464.423C633.942 465.871 634.626 467.722 634.568 469.707Q634.551 470.274 634.477 470.837Q634.404 471.399 634.274 471.952Q634.144 472.504 633.96 473.041Q633.776 473.577 633.538 474.093Q633.301 474.608 633.013 475.097Q632.726 475.587 632.391 476.044Q632.055 476.502 631.676 476.924Q631.297 477.346 630.877 477.728C623.458 484.39 607.871 482.296 598.565 481.97C597.922 488.587 597.397 495.235 596.328 501.799C603.731 501.667 617.017 499.604 623.029 504.15C624.585 505.326 625.713 507.005 625.827 508.99C625.989 511.836 624.284 514.63 622.343 516.572C618.067 520.85 613.235 521.227 607.566 521.32L594.308 520.968C593.297 530.606 592.874 543.477 590.236 552.54C589.308 555.729 587.463 559.786 584.321 561.312C582.201 562.34 579.406 562.444 577.229 561.527C575.097 560.629 573.456 558.755 572.718 556.571C571.96 554.327 572.253 551.296 572.414 548.931C573.263 536.455 575.279 523.865 576.664 511.424C578.053 498.938 578.838 486.276 580.666 473.853C580.975 471.758 581.253 469.198 582.254 467.308C583.737 464.508 585.992 463.151 588.906 462.158Z"/>
	<path fill="#F8A42E" transform="scale(0.672852 0.672852)" d="M839.256 463.712Q843.181 463.478 847.113 463.492C851.911 463.54 857.108 464.421 860.496 468.138C863.966 471.945 864.063 476.822 863.897 481.66C851.604 481.295 839.48 481.776 827.216 482.557C826.495 489.576 824.457 497.348 822.369 504.096C827.483 503.24 832.591 502.284 837.713 501.482C842.226 500.775 847.692 500.438 851.498 503.427C855.781 506.791 856.041 511.761 856.596 516.751Q837.947 518.147 819.481 521.1C818.722 528.604 818.339 536.133 817.469 543.631C821.709 543.454 825.911 542.887 830.121 542.375C836.592 541.319 843.163 539.966 849.722 539.709C852.445 541.682 855.325 544.364 856.125 547.767C856.585 549.726 856.267 551.733 855.145 553.413C852.021 558.089 844.556 559.012 839.458 559.944C830.493 561.583 813.851 564.908 805.886 558.993C803.256 557.041 802.486 553.783 802.151 550.668C800.786 537.975 807.465 478.251 814.591 469.96C819.983 463.687 831.668 464.264 839.256 463.712Z"/>
	<path fill="#F8A42E" transform="scale(0.672852 0.672852)" d="M197.325 379.949C198.027 380.183 197.618 379.986 198.429 380.747C199.624 384.572 198.956 389.189 198.24 393.086C192.725 423.094 161.899 443.671 138.699 459.961Q127.989 452.746 117.743 444.887L99.386 431.026C111.571 423.79 124.586 417.818 137.193 411.359L197.325 379.949Z"/>
	<path fill="#C53C35" transform="scale(0.672852 0.672852)" d="M246.297 461.242C253.35 461.006 260.71 460.387 267.746 460.808C271.22 461.016 275.166 461.863 277.511 464.663C279.017 466.459 279.447 468.751 279.215 471.039C277.283 490.073 252.205 474.413 244.8 482.209C241.413 485.774 242.037 497.49 241.665 502.294C248.764 502.244 256.237 501.097 263.277 502.175C266.884 502.728 271.037 504.335 273.105 507.532C273.988 508.898 274.275 510.424 273.835 512.007C273.322 513.849 272.039 515.442 270.736 516.794C261.709 526.164 249.73 516.531 241.96 521.758C240.594 522.678 239.825 524.054 239.465 525.634C238.576 529.53 237.262 537.958 239.375 541.43C240.922 542.466 241.561 542.422 243.375 542.585C249.474 542.396 263.875 540.902 268.793 543.877C271.053 545.243 272.329 547.753 272.851 550.273C273.319 552.53 272.893 554.783 271.532 556.658C269.022 560.114 264.442 561.659 260.391 562.258C254.066 563.192 237.869 563.254 231.84 561.986C229.42 561.477 227.046 560.497 225.098 558.952C222.153 556.615 221.529 553.741 221.096 550.152C219.671 538.314 223.159 521.074 224.357 508.724C225.389 498.075 225.461 486.786 227.729 476.336C228.444 473.044 229.566 469.764 231.741 467.131C235.542 462.529 240.707 461.686 246.297 461.242Z"/>
	<path fill="#C53C35" transform="scale(0.672852 0.672852)" d="M322.264 459.685C324.167 460.657 324.702 462.425 325.43 464.303C329.882 475.787 332.247 488.612 335.615 500.493L344.076 530.227C345.821 536.336 347.926 542.549 348.952 548.825C349.456 551.906 349.702 555.028 348.307 557.931C347.153 560.331 344.74 562.137 342.244 562.966C340.764 563.457 339.246 563.19 337.93 562.384C332.143 558.84 331.098 548.671 329.815 542.521L302.375 542.566L299.754 542.625C296.343 544.968 294.318 552.348 292.321 556.065C290.759 558.974 288.743 562.283 285.322 563.163C283.46 563.641 281.341 563.382 279.713 562.339C277.792 561.109 276.623 558.876 276.226 556.676C275.846 554.576 276.048 552.825 276.815 550.853C278.909 545.465 281.862 540.274 284.447 535.096L298.424 507.036L312.273 478.531C315.346 472.199 318.264 465.495 322.264 459.685ZM318.627 496.833Q312.122 510.655 305.761 524.543L313.25 524.532L325.76 524.504C324.623 519.183 321.387 500.029 318.627 496.833Z"/>
	<path fill="#C53C35" transform="scale(0.672852 0.672852)" d="M483.565 460.988C483.702 461.003 483.839 461.017 483.975 461.034C486.284 461.319 487.966 461.816 489.383 463.799C494.316 470.7 489.664 493.503 488.531 502.149C498.442 502.408 508.431 502.193 518.351 502.278C519.395 494.958 520.01 487.56 520.85 480.212C521.49 474.611 521.798 466.177 526.793 462.57C528.308 461.475 529.984 461.215 531.8 461.676C533.653 462.148 535.281 463.784 536.214 465.385C537.144 466.981 537.467 468.65 537.509 470.473C537.855 485.601 534.621 501.218 532.938 516.25C531.66 527.669 531.187 543.338 528.299 554.147C527.287 557.937 525.396 559.802 522.05 561.671C521.346 561.707 520.648 561.722 519.943 561.667C518.143 561.528 516.758 560.942 515.628 559.488C510.76 553.227 515.052 530.377 516.048 521.986C505.973 521.732 495.841 521.846 485.764 521.903C485.323 531.68 485.081 542.02 483.325 551.653C482.608 555.589 480.639 559.478 477.233 561.73C475.912 562.603 474.351 563.12 472.768 562.658C470.906 562.114 469.608 560.34 468.846 558.651C467.95 556.664 467.549 554.54 467.524 552.369C467.413 542.525 469.389 532.015 470.378 522.175C471.417 511.829 473.907 474.327 477.027 466.595C478.228 463.618 480.734 462.156 483.565 460.988Z"/>
	<path fill="#F8A42E" transform="scale(0.672852 0.672852)" d="M166.534 359.658C176.915 358.89 185.088 363.383 193.605 368.714Q142.518 396.651 90.3247 422.461Q83.3225 416.655 77.4692 409.692Q75.5647 407.192 73.8071 404.586C69.1365 397.585 66.7049 389.43 68.5046 381.028C69.8 374.98 73.1056 369.572 78.3968 366.248C84.0439 362.701 91.1031 362.062 97.5179 363.542C112.727 367.052 123.078 382.36 130.847 394.721C133.738 388.928 136.547 382.98 140.128 377.578C146.783 367.539 154.772 362.078 166.534 359.658Z"/>
	<path fill="#C53C35" transform="scale(0.672852 0.672852)" d="M157.393 460.905C157.535 460.893 157.676 460.87 157.819 460.87C159.727 460.873 161.747 461.703 163.043 463.109C169.128 469.714 164.796 493.025 164.375 501.831C174.586 502.377 184.645 502.219 194.864 501.9C196.197 492.383 195.145 469.957 201.34 463.375C202.847 461.774 205.538 460.456 207.769 460.679C209.202 460.822 210.298 461.726 211.081 462.88C212.807 465.422 213.343 468.904 213.521 471.916C214.23 483.905 211.864 502.032 210.733 514.352C209.573 526.983 209.082 540.557 206.419 552.934C205.357 557.87 203.949 560.102 199.711 562.832C198.987 562.896 198.459 562.914 197.746 562.834C195.731 562.605 194.003 561.764 192.79 560.099C187.56 552.921 191.617 530.744 192.683 521.596C182.654 521.295 172.569 521.498 162.534 521.485C161.863 531.078 161.831 541.278 160.019 550.711C159.223 554.855 157.741 559.33 153.954 561.671C152.32 562.681 150.615 562.984 148.74 562.477C147.076 562.027 145.712 560.672 144.914 559.193C143.83 557.183 143.685 554.929 143.619 552.692C143.214 538.94 145.14 524.372 146.222 510.637C147.151 498.851 147.977 475.341 151.32 464.883C153.261 463.145 155.074 462.046 157.393 460.905Z"/>
	<path fill="#F8A42E" transform="scale(0.672852 0.672852)" d="M783.293 462.373C783.998 463.118 784.075 464.254 784.2 465.257C785.81 478.176 786.299 491.465 787.524 504.455C789.313 523.418 791.71 542.48 792.542 561.514L774.6 561.482C773.409 551.2 772.724 540.818 771.93 530.498C771.411 523.743 770.382 516.533 770.935 509.783C760.527 527.137 750.863 544.845 740.947 562.473C735.072 543.752 730.142 524.66 724.579 505.833C722.85 512.88 720.124 519.786 717.724 526.627L705.597 562.201Q700.171 560.301 694.713 558.497C699.03 540.556 704.466 522.857 709.506 505.108C713.521 490.966 717.041 476.681 721.644 462.715C726.699 471.083 729.996 481.239 733.739 490.269Q740.73 506.937 748.307 523.346C758.981 502.636 771.425 482.433 783.293 462.373Z"/>
	<path fill="#F8A42E" transform="scale(0.672852 0.672852)" d="M689.373 573.943C690.453 573.943 691.653 573.902 692.696 574.208C694.22 574.655 694.982 575.871 695.717 577.174C698.505 582.11 700.314 587.842 702.388 593.119C706.002 602.315 709.608 611.539 713.885 620.45L772.662 620.523C780.509 620.536 790.926 619.673 798.483 620.599C800.526 620.849 801.881 621.313 803.478 622.601C804.023 623.721 804.338 624.164 804.168 625.446C803.988 626.807 803.001 628.095 801.868 628.831C800.32 629.836 798.027 629.837 796.222 629.908C781.685 630.48 766.802 629.566 752.226 629.579C739.361 629.59 720.396 631.222 708.538 629.091C701.769 621.946 697.499 608.221 693.646 598.957C693.443 610.152 691.412 621.693 690.175 632.836C689.19 641.706 688.849 650.713 687.624 659.542C687.186 662.698 686.664 666.411 683.973 668.435C682.666 668.634 682.006 668.693 680.839 667.982C674.918 664.375 664.772 639.163 662.681 632.486Q628.652 631.88 594.621 632.371C585.812 632.431 569.67 633.8 561.85 632.167C557.707 631.302 554.696 628.657 551.529 626.045C549.427 633.663 537.905 671.925 532.862 674.671C532.01 675.135 530.536 674.934 529.708 674.525C528.026 673.694 527.116 672.065 526.312 670.457C521.276 660.383 518.043 648.844 514.2 638.253C509.086 624.159 503.417 610.235 498.574 596.048C486.619 625.55 479.665 656.968 469.145 686.956C468.188 689.684 466.863 694.52 464.73 696.513C463.692 697.483 462.613 697.998 461.172 697.901C458.821 696.263 457.524 693.393 456.501 690.79C453.291 682.623 451.518 673.564 449.189 665.085C444.329 647.391 439.602 629.601 433.927 612.147C430.384 618.281 426.826 624.349 422.473 629.957C407.686 630.224 392.836 629.841 378.043 629.775L300.25 629.636L196.895 629.498L166.1 629.565C160.322 629.596 154.351 629.925 148.595 629.478C146.449 629.311 143.731 628.947 142.095 627.412C141.425 626.783 141.444 626.098 141.464 625.207C141.493 623.912 142.387 622.343 143.309 621.487C144.868 620.04 148.825 620.208 150.878 620.157C163.833 619.835 176.9 620.366 189.869 620.4L275.687 620.493L366.169 620.545C383.376 620.565 400.651 620.281 417.849 620.832C420.711 615.685 429.434 597.737 434.271 595.926C435.455 595.482 436.522 595.611 437.646 596.181C439.46 597.101 440.309 599.728 441.01 601.524C443.513 607.944 445.055 614.973 446.936 621.606C452.006 639.483 456.364 657.819 462.378 675.391C469.918 654.376 476.286 632.892 482.902 611.569C485.963 601.7 488.518 590.917 492.632 581.446C493.387 579.706 494.273 577.976 496.141 577.208C497.581 576.616 498.685 576.975 500.077 577.393C504.478 580.772 527.124 646.398 531.124 657.619C535.227 647.084 540.255 621.101 547.071 614.035C547.964 613.11 548.823 612.511 550.153 612.564C554.721 612.746 559.853 620.3 562.498 623.62L667.594 623.583C672.457 630.691 675.52 638.74 679.299 646.436C680.794 628.174 682.753 609.925 684.35 591.664C684.826 586.227 684.95 577.658 689.373 573.943Z"/>
	<path fill="#F8A42E" transform="scale(0.672852 0.672852)" d="M879.464 325.076C880.393 324.974 881.331 324.876 882.267 324.873C887.566 324.855 890.65 327.836 894.173 331.322C896.122 329.317 898.155 327.666 900.521 326.174C912.315 328.449 922.324 326.035 933.174 328.001C938.443 328.955 944.521 331.114 947.547 335.811C949.368 338.638 949.927 342.379 949.147 345.638C948.061 350.175 944.313 352.678 940.533 354.868C940.254 359.252 940.066 363.645 939.836 368.031C940.875 369.709 942.434 371.714 943.029 373.578C943.361 374.618 943.14 374.835 942.676 375.745C941.182 376.72 939.65 376.53 937.939 376.522C936.715 380.523 934.694 390.178 931.933 393.033C926.872 398.268 918.28 392.227 912.476 393.216C911.045 393.46 910.956 393.729 910.193 394.851C911.454 400.279 920.482 409.387 923.605 415.077C932.312 430.942 925.507 452.281 920.863 468.525Q928.773 472.233 935.883 477.309C941.737 481.475 947.039 486.656 954.024 488.762C957.753 487.802 964.106 485.317 967.617 487.47C968.682 488.123 969.323 489.12 969.673 490.288C970.417 492.767 970.137 496.248 968.921 498.537C967.445 501.315 965.22 504.772 961.909 505.444C959.546 505.924 956.92 504.558 954.976 503.368C950.138 500.408 945.724 495.898 941.325 492.276C933.96 486.212 926.489 481.076 918.173 476.39L917.084 484.18Q934.084 511.513 947.994 540.54L943.137 542.311C945.573 551.022 948.171 560.008 949.182 569.008C950.439 580.205 949.229 591.788 949.262 603.047C949.317 622.206 950.239 640.997 952.119 660.066C957.158 660.388 962.238 661.246 967.287 661.272C971.172 661.291 975.42 659.998 979.232 660.515C980.975 660.752 981.386 661.446 982.343 662.761C982.553 663.777 982.641 664.352 982.305 665.368C980.856 669.749 972.437 673.313 968.444 674.914C961.793 677.579 945.678 682.604 938.898 679.73C935.08 676.075 934.933 665.667 934.309 660.575Q938.505 661.095 942.689 661.7C940.498 652.57 937.727 643.709 934.799 634.791C928.883 616.774 923.308 600.272 929.742 581.533C925.869 573.007 921.042 565.115 916.221 557.105Q911.459 559.096 906.639 560.94L900.233 550.333C898.419 556.115 897.113 562.158 895.628 568.036C894.732 573.556 893.081 581.814 889.383 586.208C884.56 591.938 877.034 595.545 870.877 599.653Q862.849 605.025 855.352 611.115C838.912 624.714 823.824 640.265 808.338 654.943C808.843 659.125 809.389 663.31 810.365 667.412C811.46 672.014 813.973 677.768 813.968 682.452C813.967 683.764 813.605 684.165 812.733 685.084C810.886 685.668 809.473 685.691 807.656 684.922C797.995 680.836 790.237 659.879 786.27 650.76C789.379 648.355 794.943 642.889 799.066 643.692C801.439 644.154 802.321 645.777 803.613 647.619C815.556 636.287 821.831 621.399 829.483 607.198C839.53 588.552 847.739 582.529 867.766 576.532C867.616 566.61 868.082 556.587 868.417 546.669C864.235 542.634 861.426 538.498 859.309 533.094C861.068 528.889 863.385 525.422 866.098 521.788C867.476 504.992 870.069 489.372 881.368 476.22C873.102 469.087 855.98 455.878 851.608 446.007C850.595 443.722 850.202 441.286 851.161 438.922C853.531 433.076 859.577 429.035 863.949 424.726C868.433 420.306 872.028 414.977 876.319 410.366C882.606 403.609 893.773 397.436 896.8 388.36C899.452 380.408 892.861 371.195 889.636 364.19C885.568 355.352 886.473 347.496 889.696 338.68C873.626 348.125 883.729 363.448 874.077 376.735C868.597 384.28 860.068 385.767 851.49 387.004C859.384 380.565 862.833 374.899 866.28 365.324C864.649 367.141 862.986 368.798 861.005 370.236C858.657 371.942 854.851 374.692 851.874 374.216C851.128 373.319 851.053 373.57 851.126 372.303L853.171 370.794C866.842 360.796 860.77 345.203 868.271 332.549C870.944 328.04 874.582 326.281 879.464 325.076ZM885.402 435.59C881.179 436.681 869.319 438.947 867.332 443.274C866.51 445.064 867.37 447.125 868.245 448.712C870.782 453.312 874.303 457.667 877.341 461.962C879.456 465.149 881.67 468.205 884.009 471.231C884.132 465.409 884.182 459.552 884.747 453.753C885.229 448.796 886.216 443.816 886.488 438.852C886.561 437.509 886.785 436.801 886.117 435.621L885.402 435.59Z"/>
</svg>
