<?xml version="1.0" encoding="utf-8" ?>
<svg xmlns="http://www.w3.org/2000/svg" xmlns:xlink="http://www.w3.org/1999/xlink" width="1024" height="1024">
	<path fill="#FBFBFA" d="M0 0L1024 0L1024 1024L0 1024L0 0Z"/>
	<path fill="#292929" d="M544.545 52.7156C565.024 51.2324 586.208 53.0719 606.473 56.0516C625.432 58.8392 643.832 63.2063 661.77 69.9972C673.896 74.5876 685.046 80.7784 696.556 86.6664L735.711 106.459C756.078 116.805 776.795 126.465 796.923 137.273C808.12 143.285 819.142 149.233 829.361 156.847C848.542 171.138 865.443 189.445 879.656 208.616C915.958 257.582 925.743 317.956 926.746 377.475Q927.164 398.641 925.876 419.772Q924.588 440.903 921.601 461.861C931.531 467.812 940.98 479.917 944.025 491.142Q944.436 492.641 944.715 494.171Q944.994 495.7 945.139 497.248Q945.285 498.796 945.295 500.351Q945.306 501.905 945.181 503.455C944.391 512.682 935.382 550.611 930.867 558.212C924.301 569.268 910.306 574.773 898.472 577.684C879.924 626.719 851.688 676.247 821.497 719.004Q806.799 739.538 790.661 758.961Q774.523 778.384 757.029 796.594C684.769 873.283 588.854 948.094 482.617 966.382Q465.478 968.87 448.203 970.109C397.187 973.594 347.675 965.314 301.142 944.036C285.981 937.104 271.679 928.558 256.657 921.366C247.158 916.818 237.257 913.205 227.682 908.831C212.841 902.052 199.571 892.966 187.327 882.237C119.286 822.616 87.5082 739.541 81.7252 650.741C79.6308 618.58 81.2309 587.284 83.8695 555.253C84.6418 545.878 84.6219 535.256 87.5583 526.287C91.4576 514.378 101.306 499.625 107.821 488.491L129.649 450.751Q169.432 382.005 212.354 315.173Q255.276 248.34 301.245 183.566Q320.405 156.451 340.217 129.809C346.453 121.379 352.349 112.355 359.317 104.533C369.206 93.4314 379.283 96.1858 391.368 91.5277C401.497 87.6234 411.272 81.6634 421.739 77.6025C461.073 62.3419 502.557 54.944 544.545 52.7156Z"/>
	<path fill="#FBFBFA" d="M727.83 405.608L729.373 405.647C729.85 407.454 727.333 414.25 727.115 416.954C726.733 421.684 728.438 424.993 731.553 428.442C734.352 431.542 737.502 433.611 741.091 435.699C762.394 448.093 785.223 458.277 807.078 469.704C826.682 479.954 847.882 492.934 867.964 501.497C875.464 504.695 883.271 507.312 891.472 507.683C899.262 508.035 907.297 506.698 913.25 501.273C916.286 491.777 918.069 482.274 919.181 472.383C923.969 477.137 928.567 482.176 931.698 488.207C934.566 493.729 935.668 498.665 933.797 504.699Q933.442 505.395 933.07 506.082C929.234 513.112 922.18 516.807 914.74 518.912C900.924 522.82 886.573 521.199 872.992 517.161C860.353 513.403 849.163 507.046 837.535 501.013L800.58 481.935L744.847 453.192C736.888 449.121 728.539 445.599 720.754 441.241C714.097 437.515 706.618 432.586 704.623 424.734C703.843 421.664 704.135 418.604 705.919 415.934C710.486 409.099 720.375 407.117 727.83 405.608Z"/>
	<path fill="#FBFBFA" d="M699.745 430.715C704.597 434.226 708.078 439.68 713.779 443.279C721.429 448.107 730.211 451.848 738.265 456.004Q762.314 468.694 786.589 480.944L828.888 502.814C843.872 510.614 858.36 519.058 874.85 523.358C895.202 528.665 912.821 528.327 931.156 517.487C928.819 529.337 926.011 550.628 917.007 558.578C914.17 561.084 906.455 566.114 902.653 565.937C903.685 561.027 906.274 555.155 906.337 550.204C906.355 548.759 906.211 548.167 905.257 547.1C904.481 546.972 904.097 546.72 903.379 547.154C899.471 549.513 896.958 563.832 896.067 568.304C878.849 569.888 863.801 568.582 847.596 561.995C840.942 559.29 834.713 555.658 828.408 552.243C819.174 547.243 809.943 542.176 800.558 537.464L739.841 506.705C728.703 501.149 713.719 494.935 703.811 488.103C698.213 484.243 693.301 478.294 690.714 471.999C689.211 468.342 688.334 464.424 688.672 460.454C689.403 451.884 696.281 438.902 699.745 430.715Z"/>
	<path fill="#FBFBFA" d="M775.334 195.185C785.847 193.459 799.258 196.661 808.928 200.726C840.362 213.938 859.61 242.595 871.981 273.168C895.244 330.657 895.539 394.164 886.246 454.616C884.089 468.648 882.009 485.603 876.489 498.64C866.83 495.019 857.902 490.352 848.84 485.476C828.555 474.174 807.703 463.8 787.007 453.281L758.325 438.503C751.757 435.11 744.678 431.943 738.712 427.544C736.639 426.016 734.73 424.217 733.519 421.913C732.749 420.449 732.313 418.908 732.536 417.253C733.391 410.903 736.367 405 737.84 398.785C740.399 387.985 741.857 376.748 743.336 365.755Q744.398 358.161 745.15 350.53Q745.902 342.899 746.342 335.243Q746.783 327.588 746.911 319.921Q747.04 312.254 746.856 304.588Q746.672 296.922 746.176 289.27Q745.68 281.618 744.872 273.992Q744.065 266.367 742.948 258.781Q741.831 251.194 740.406 243.66C738.607 233.684 736.806 223.237 733.598 213.606L733.381 212.961C744.869 204.621 761.129 196.859 775.334 195.185Z"/>
	<path fill="#FBFBFA" d="M92.9223 566.232C94.7611 567.666 96.3708 569.792 98.0174 571.467C101.854 575.369 105.919 579.184 110.331 582.425C123.38 592.01 137.63 600.036 151.805 607.803Q164.39 614.839 177.291 621.277Q190.192 627.715 203.381 633.541Q216.57 639.366 230.017 644.567Q243.465 649.767 257.142 654.33C281.051 662.143 294.909 661.846 317.097 650.582C312.427 665.784 309.439 681.249 306.956 696.943C297.718 755.321 300.99 814.184 318.61 870.731C330.067 907.499 350.783 934.58 385.228 952.664C390.326 954.901 395.545 956.861 400.462 959.488C391.546 958.349 382.617 957.585 373.733 956.163C348.358 952.101 324.786 944.251 301.64 933.18C289.394 927.322 277.596 920.574 265.408 914.598C252.667 908.351 239.234 903.658 226.533 897.401C200.745 884.695 179.096 863.243 161.045 841.237C123.541 795.517 101.762 736.856 94.2087 678.618C91.8496 660.428 91.0912 642.108 90.8433 623.783C90.5847 604.674 91.0632 585.266 92.9223 566.232Z"/>
	<path fill="#FBFBFA" d="M724.153 218.91L724.739 219.212C727.58 225.63 728.635 233.758 729.989 240.626Q731.386 248.095 732.493 255.613Q733.6 263.131 734.415 270.685Q735.231 278.24 735.753 285.821Q736.276 293.402 736.505 300.997Q736.735 308.592 736.67 316.191Q736.606 323.789 736.248 331.379Q735.889 338.97 735.238 346.54Q734.587 354.111 733.643 361.651C732.262 373.043 730.731 384.353 727.33 395.349C717.918 395.63 707.509 398.924 700.865 405.865C698.562 408.272 696.766 411.04 695.23 413.985C692.066 420.049 689.867 426.727 687.217 433.041C684.455 439.625 680.953 446.17 679.018 453.054Q678.348 455.401 678.071 457.826Q677.794 460.251 677.917 462.688C678.505 476.142 686.013 486.697 695.569 495.562C693.829 501.167 691.536 506.68 689.026 511.982C642.844 609.578 560.003 715.868 471.644 778.754Q465.922 782.836 460.067 786.725Q454.212 790.614 448.23 794.304Q442.249 797.995 436.147 801.484Q430.045 804.973 423.831 808.256Q417.616 811.539 411.294 814.613Q404.973 817.686 398.553 820.547Q392.133 823.407 385.62 826.051Q379.108 828.696 372.511 831.121Q360.435 834.878 348.318 838.497Q348.897 832.619 349.561 826.749C353.354 794.343 364.475 761.433 378.518 732.088C390.735 706.556 406.14 682.141 420.767 657.916C451.839 606.454 484.746 556.225 516.873 505.437Q559.621 436.877 603.786 369.219C623.044 339.414 641.685 308.91 663.412 280.791Q669.979 272.126 677.085 263.898Q684.191 255.67 691.806 247.911Q699.422 240.152 707.517 232.894Q715.612 225.637 724.153 218.91Z"/>
	<path fill="#FBFBFA" d="M705.197 500.722L792.06 544.947Q806.852 552.451 821.557 560.124C828.822 563.904 836.108 567.963 843.679 571.092C849.62 573.548 855.772 575.292 861.936 577.08C857.212 586.967 853.45 597.29 848.61 607.138C843.295 617.951 837.033 628.342 830.937 638.726C825.229 648.448 819.645 658.265 813.586 667.773C798.855 690.887 782.814 713.97 765.591 735.3C700.169 816.323 599.806 903.399 495.916 926.353C461.923 934.154 425.26 936.784 393.532 919.531C366.173 904.654 352.615 878.913 344.165 850.067C362.614 846.091 380.507 839.537 397.892 832.287C424.6 821.15 449.916 805.917 473.516 789.277C554.147 732.421 619.924 654.133 669.697 569.391C682.715 547.227 695.392 524.511 705.197 500.722Z"/>
	<path fill="#1B1B1B" d="M506.955 811.608C513.399 811.054 518.688 811.519 524.672 814.247C533.285 818.173 554.007 829.864 560.608 836.052C562.464 837.792 563.873 839.72 564.712 842.139C565.967 845.754 565.308 849.973 563.535 853.309C561.465 857.2 557.845 859.049 553.819 860.354C547.099 861.598 541.628 860.564 535.637 857.464C531.23 855.183 527.06 852.431 522.686 850.076C513.501 845.131 498.023 839.266 494.841 828.151C493.853 824.699 494.445 821.376 496.264 818.316C498.741 814.149 502.528 812.793 506.955 811.608Z"/>
	<path fill="#FBFBFA" d="M510.612 816.609C520.399 815.908 547.681 832.42 555.363 838.723C557.571 840.534 559.472 842.111 559.685 845.13C559.796 846.696 559.664 848.257 558.567 849.449C556.723 849.325 554.409 846.13 553.112 844.755C550.17 842.685 546.743 841.15 543.623 839.343C535.809 834.82 525.941 827.039 516.937 825.478C513.474 824.878 502.181 827.03 501.184 826.55C501.099 826.236 501.008 825.924 500.929 825.609C500.512 823.954 500.552 822.216 501.543 820.764C503.444 817.978 507.554 817.323 510.612 816.609Z"/>
	<path fill="#1B1B1B" d="M573.867 760.116C582.896 759.048 591.349 763.304 599.068 767.417C609.094 772.759 630.708 782.198 633.984 793.933C635.218 798.354 634.194 803.301 631.841 807.188C628.768 812.266 622.464 815.587 616.815 816.857C599.414 819.343 581.085 807.685 567.14 798.317C561.684 794.651 556.748 790.161 555.569 783.355C554.659 778.101 556.063 772.711 559.143 768.393C562.827 763.226 567.85 761.165 573.867 760.116Z"/>
	<path fill="#292929" d="M578.326 775.949C579.936 776.239 581.612 776.142 583.218 776.485C592.167 778.395 599.975 784.288 607.718 788.833C607.609 788.913 607.517 789.023 607.391 789.074C606.036 789.617 603.924 787.874 602.712 787.166C597.943 783.952 592.996 780.771 587.372 779.293C582.055 777.895 577.846 778.296 573.175 781.092C572.42 781.543 572.787 781.506 572.18 781.452C574.114 779.449 575.949 777.429 578.326 775.949Z"/>
	<path fill="#FBFBFA" d="M577.721 783.595C579.805 783.448 581.914 783.295 583.975 783.732C592.315 785.498 610.028 795.974 616.876 801.356C618.539 802.662 620.209 804.052 620.486 806.253C619.62 807.496 618.974 807.465 617.56 807.92C616.333 807.986 615.106 808.019 613.879 807.942C605.176 807.398 581.112 797.221 575.646 790.351C574.802 789.291 574.269 787.985 574.695 786.628C575.184 785.069 576.389 784.351 577.721 783.595Z"/>
	<path fill="#FBFBFA" d="M576.247 765.172C583.617 765.27 589.406 768.344 595.755 771.734C603.156 775.685 626.548 786.949 628.703 795.111C629.469 798.012 629.167 801.686 627.747 804.339C627.307 803.725 627.344 802.073 627.259 801.289C627.198 800.731 627.155 800.172 627.037 799.622C625.807 793.875 616.385 789.424 611.713 786.54C605.993 783.049 600.248 779.387 594.201 776.493C587.905 773.479 580.257 771.108 573.421 773.693C570.38 774.843 567.271 777.19 566.092 780.317C564.434 784.714 566.763 789.076 568.624 792.968C564.615 789.648 561.307 785.997 560.736 780.551C560.369 777.056 561.347 773.625 563.589 770.908C566.845 766.962 571.391 765.706 576.247 765.172Z"/>
	<path fill="#292929" d="M736.049 555.572C738.953 555.348 741.624 555.495 744.449 556.256C754.115 558.859 774.159 570.207 783.482 575.598C790.755 579.804 797.013 584.278 799.119 592.982C800.553 598.913 799.336 605.009 796.164 610.166C792.811 615.617 788.017 618.092 781.996 619.513C778.993 619.723 776.138 619.523 773.244 618.642C767.897 617.013 762.967 614.003 757.99 611.498L739.752 602.492C730.958 598.052 721.446 592.692 718.347 582.614C716.584 576.879 717.793 571.191 720.743 566.091C724.36 559.84 729.383 557.448 736.049 555.572Z"/>
	<path fill="#FBFBFA" d="M735.225 561.56C741.719 561.236 747.291 563.82 752.847 566.86L750.923 566.589C745.459 565.849 740.22 566.524 735.776 570.086C731.85 573.234 730.296 577.431 729.871 582.305C730.192 584.608 732.366 589.122 731.968 590.882C731.796 590.813 731.616 590.76 731.451 590.676C728.414 589.133 725.382 584.939 724.193 581.793C722.784 578.065 722.948 574.109 724.643 570.504C726.797 565.927 730.589 563.237 735.225 561.56Z"/>
	<path fill="#FBFBFA" d="M746.089 572.543C747.829 572.455 749.39 572.465 751.067 572.99C756.493 574.687 761.521 577.759 766.631 580.214C772.201 582.889 778.64 585.094 783.722 588.608C785.874 590.095 787.801 591.887 788.943 594.279C790.005 596.501 790.412 599.306 789.47 601.643C788.211 604.766 784.72 607.53 781.761 608.917C781.677 608.928 781.593 608.937 781.51 608.949C780.245 609.127 778.912 609.374 777.647 609.084C772.818 607.975 748.921 595.233 744.471 591.94C742.731 590.653 741.201 589.191 740.075 587.327C738.728 585.099 738.064 582.451 738.812 579.895C739.856 576.327 742.992 574.208 746.089 572.543Z"/>
	<path fill="#292929" d="M691.015 626.654C701.127 627.011 711.153 633.607 719.72 638.58C729.516 644.266 747.37 653.453 750.201 665.23C751.496 670.615 750.032 677.239 746.912 681.824C742.867 687.771 736.492 690.33 729.671 691.488C727.399 691.429 725.211 691.292 723.027 690.611C713.897 687.764 689.326 674.879 681.174 669.235C675.45 665.273 670.96 660.113 669.884 652.991C668.989 647.071 670.64 639.681 674.432 634.937C678.704 629.591 684.464 627.515 691.015 626.654Z"/>
	<path fill="#FBFBFA" d="M687.596 632.631C689.739 632.38 691.897 632.203 694.034 632.608C701.287 633.984 712.781 640.666 718.691 645.258C710.912 641.967 701.982 636.877 693.287 639.269C688.331 640.633 685.573 644 683.214 648.307C682.324 650.832 681.751 653.187 682.219 655.875C683.226 661.647 688.274 664.997 692.644 668.226C686.222 665.754 679.463 661.095 676.641 654.643Q676.32 653.896 676.077 653.121Q675.833 652.346 675.67 651.549Q675.507 650.753 675.425 649.945Q675.343 649.136 675.343 648.324Q675.344 647.511 675.427 646.703Q675.51 645.894 675.674 645.098Q675.839 644.302 676.083 643.527Q676.327 642.752 676.649 642.006C678.784 637.104 682.878 634.589 687.596 632.631Z"/>
	<path fill="#FBFBFA" d="M697.946 645.481C699.329 645.324 700.616 645.353 701.969 645.699C709.646 647.663 735.738 659.435 739.504 666.025C740.634 668.004 740.991 670.357 740.341 672.559C739.268 676.199 736.128 678.471 733.006 680.272Q730.02 680.707 727.027 681.093C721.757 678.785 716.856 675.588 711.804 672.84C706.902 670.173 701.503 667.894 696.883 664.774C695.058 663.541 693.321 662.133 692.084 660.287C690.806 658.379 690.121 656.136 690.616 653.855C691.46 649.961 694.847 647.555 697.946 645.481Z"/>
	<path fill="#292929" d="M636.296 693.602C641.905 693.121 646.191 693.464 651.366 696.022C656.465 698.542 661.328 701.592 666.381 704.217C678.063 710.286 693.151 716.3 697.537 730.055C699.299 735.581 698.696 741.899 696.021 747.042C692.918 753.009 687.566 756.351 681.391 758.45C675.932 759.397 671.226 758.534 666.199 756.35C661.127 754.146 656.394 751.024 651.542 748.377C640.159 742.169 624.86 736.229 620.048 723.052C617.816 716.942 618.596 710.696 621.497 704.968C624.69 698.664 629.851 695.743 636.296 693.602Z"/>
	<path fill="#FBFBFA" d="M636.815 699.535C646.694 698.712 652.321 703.223 660.212 708.039C662.198 709.251 665.043 710.375 666.803 711.872C667.019 712.057 667.179 712.299 667.367 712.512L666.623 711.662L666.525 712.342C662.115 710.814 658.02 708.143 653.658 706.412C647.68 704.041 643.085 704.436 637.31 706.877C636.898 707.148 636.483 707.416 636.084 707.706C632.718 710.151 630.164 713.568 629.578 717.764C628.838 723.071 631.179 727.117 634.133 731.234C630.283 728.31 627.148 725.736 625.446 720.986C623.956 716.824 624.134 711.924 626.06 707.932C628.265 703.36 632.187 701.082 636.815 699.535Z"/>
	<path fill="#FBFBFA" d="M645.556 712.097C647.044 711.929 648.481 711.847 649.959 712.167C655.659 713.4 685.069 729.137 687.552 733.513C688.678 735.497 688.916 737.739 688.251 739.915C687.033 743.906 684.065 746.337 680.565 748.288C678.703 748.648 677.197 748.881 675.356 748.319C667.993 746.072 642.481 732.904 639.015 726.087C637.886 723.867 637.504 721.13 638.432 718.77C639.698 715.551 642.559 713.525 645.556 712.097Z"/>
	<path fill="#FBFBFA" d="M542.574 62.7105C574.618 61.3437 609.234 64.6858 640.123 73.5095C668.52 81.6216 692.427 96.641 718.718 109.537Q751.347 125.232 783.529 141.823C792.769 146.583 802.304 151.011 811.216 156.359Q816.954 159.846 822.338 163.858Q827.722 167.871 832.704 172.372C824.769 169.045 816.999 165.533 808.671 163.249C779.471 155.244 743.726 156.713 713.992 160.595C680.371 164.985 652.672 173.719 623.469 191.111C617.538 194.644 609.844 198.752 605.598 204.268C605.462 205.615 605.326 205.784 606.03 206.912C607.693 207.364 609.037 206.615 610.472 205.826C614.778 203.459 618.5 200.022 622.619 197.344C631.407 191.629 641.242 186.483 650.844 182.269C690.75 164.756 738.995 159.931 782.08 163.978C817.292 167.285 844.125 180.449 866.811 207.973C917.19 269.097 921.69 367.307 913.714 442.712C912.424 454.903 910.36 467.059 908.139 479.112C906.843 486.143 905.047 493.274 904.409 500.394L904.344 501.165C896.447 502.965 889.624 502.618 881.804 500.76C882.701 498.028 883.418 495.249 884.09 492.455C898.817 431.227 902.276 364.946 887.047 303.526C881.968 283.044 874.877 263.048 863.785 244.998C849.405 221.597 829.507 200.72 802.214 193.327C794.72 191.297 787.023 191.137 779.546 189.356C779.393 188.803 779.231 188.253 779.084 187.698C778.645 186.043 778.506 185.267 777.238 184.047C775.703 183.401 774.634 183.265 772.988 183.647C766.96 185.048 760.617 187.72 754.883 190.073C743.336 194.811 731.942 200.821 721.74 208.002C669.705 244.63 626.787 314.024 592.936 367.399C587.159 376.507 581.093 385.426 575.355 394.562C566.287 409.001 557.513 423.711 548.184 437.977C544.864 443.055 541.175 447.885 537.827 452.941C530.264 464.363 523.286 476.233 515.908 487.784Q481.844 540.407 448.774 593.659L404.276 665.855C391.506 686.964 378.683 707.994 368.169 730.353C353.574 761.393 343.471 794.055 339.441 828.15C338.621 835.081 337.288 842.765 338.757 849.649C340.331 857.029 343.219 864.292 346.241 871.195C355.144 891.527 366.598 907.921 385.507 920.154C419.47 942.124 458.695 939.557 496.393 931.562Q509.195 928.743 521.712 924.851C605.206 898.369 687.927 832.426 745.841 767.498C769.916 740.507 796.506 704.598 815.914 674.036C828.857 653.655 841.54 632.689 852.559 611.196C858.057 600.472 862.245 589.106 867.801 578.394Q872.575 579.044 877.392 579.109Q882.209 579.174 886.998 578.653C882.425 588.5 878.711 598.748 874.074 608.608C862.327 633.59 848.603 658.35 834.074 681.812C828.28 691.17 821.819 700.172 815.515 709.19Q811.086 715.576 806.521 721.866Q801.956 728.155 797.257 734.345Q792.557 740.534 787.725 746.621Q782.893 752.708 777.931 758.689Q772.97 764.671 767.88 770.544Q762.791 776.417 757.576 782.179Q752.361 787.941 747.023 793.589Q741.685 799.238 736.227 804.77Q730.768 810.302 725.192 815.715Q719.616 821.128 713.924 826.42Q708.233 831.712 702.429 836.88Q696.625 842.048 690.71 847.089Q684.796 852.131 678.775 857.044Q672.753 861.957 666.627 866.74Q660.501 871.522 654.274 876.171Q648.046 880.82 641.72 885.334C633.469 891.11 625.227 896.994 616.654 902.287Q601.304 911.753 585.24 919.946Q569.175 928.14 552.5 935.008C520.675 948.378 471.143 961.531 436.557 960.02C423.163 959.435 405.581 955.599 393.235 950.526C362.028 937.705 340.935 913.187 328.157 882.518C303.756 823.951 302.076 742.898 314.468 681.196C316.44 671.375 318.238 660.905 321.576 651.447C324.408 643.426 332.659 632.305 337.381 624.454Q357.517 590.453 378.49 556.962Q422.448 485.675 467.861 415.305Q503.434 360.694 540.547 307.118C554.608 286.52 569.097 266.197 583.406 245.769C589.777 236.674 600.467 223.815 604.388 214.024C604.467 213.826 604.542 213.627 604.618 213.429C603.072 204.289 600.223 195.632 594.93 187.942C589.975 180.744 583.104 174.947 575.904 170.097C566.306 163.632 555.617 158.35 545.367 153Q501.543 130.33 455.613 112.305C439.889 105.969 423.77 98.598 407.039 95.4935C413.511 92.0297 420.475 89.3406 427.295 86.6453C464.08 72.1073 503.202 65.0445 542.574 62.7105Z"/>
	<path fill="#1B1B1B" d="M616.609 218.726C617.485 218.855 618.32 219.045 619.182 219.245C621.192 221.253 640.045 262.201 640.805 265.899C641.13 267.48 640.483 268.224 639.793 269.555C639.513 269.454 639.229 269.36 638.951 269.251C637.503 268.679 636.775 267.714 636.011 266.415C630.733 257.448 626.874 246.729 622.577 237.21C620.406 232.4 617.157 226.999 615.73 222.004C615.285 220.449 615.858 219.987 616.609 218.726Z"/>
	<path fill="#1B1B1B" d="M333.682 651.197C334.476 651.572 335.17 651.902 335.781 652.55C338.409 655.339 340.608 658.675 343.123 661.593C348.097 667.365 353.974 672.946 359.855 677.804C364.76 681.855 375.187 686.983 378.736 691.179C378.898 692.681 378.112 693.65 377.365 694.873C377 694.723 376.635 694.573 376.275 694.41C365.552 689.548 336.185 666.301 331.822 654.781C332.021 653.135 332.711 652.516 333.682 651.197Z"/>
	<path fill="#FBFBFA" d="M388.355 102.682C395.535 102.084 403.025 103.734 409.904 105.648C422.689 109.207 434.936 114.641 447.251 119.537Q492.086 137.028 535.06 158.692C545.115 163.787 554.94 169.499 564.715 175.113C581.409 184.702 588.862 193.153 593.934 211.975Q593.636 212.699 593.311 213.411C589.765 221.278 582.41 229.625 577.335 236.725L550.228 275.36Q511.056 332.233 472.993 389.855Q422.339 466.95 373.839 545.415L341.363 598.776C334.754 609.802 328.476 621.481 321.087 631.976C315.834 639.435 307.992 644.449 299.555 647.593C297.321 648.191 295.039 648.751 292.756 649.126C287.129 650.05 281.293 649.875 275.685 648.92C263.032 646.764 250.518 641.781 238.58 637.22Q217.774 629.365 197.586 620.034Q177.399 610.703 157.935 599.944C144.82 592.774 131.92 585.491 119.858 576.624C107.669 567.664 98.0868 559.246 95.8139 543.594C95.0825 538.556 95.6338 533.725 97.3004 528.928C100.721 519.083 107.159 509.744 112.349 500.729L136.731 458.455Q162.539 413.677 189.663 369.684Q216.787 325.691 245.202 282.52Q273.617 239.35 303.299 197.04Q332.98 154.73 363.902 113.318C369.268 106.197 379.959 103.862 388.355 102.682Z"/>
	<path fill="#292929" d="M424.765 150.21C443.572 148.568 464.708 154.805 479.966 165.765C497.869 178.624 508.753 199.177 512.201 220.684C515.284 239.914 512.763 261.834 505.234 279.851C498.964 294.855 492.84 301.852 484.124 315.021C473.258 331.439 462.118 347.677 451.385 364.184L383.209 467.973L355.319 511.044C349.825 519.522 344.541 528.164 338.616 536.351C316.669 566.676 284.777 588.921 247.47 594.862Q245.404 595.137 243.326 595.291C221.743 596.96 199.337 591.464 182.701 577.15C166.549 563.252 158.979 543.687 157.571 522.746C156.27 503.395 160.55 477.791 168.327 459.759C172.626 449.791 179.244 440.597 184.97 431.404C190.406 422.676 195.459 413.69 200.797 404.896Q250.52 323.743 303.364 244.586C314.089 228.555 322.888 210.455 335.69 195.982C358.617 170.062 389.819 152.324 424.765 150.21Z"/>
	<path fill="#FBFBFA" d="M422.907 158.71C439.942 156.852 457.791 161.47 472.119 170.706C488.325 181.153 498.94 198.231 502.882 216.961C507.215 237.555 503.556 261.95 495.276 281.139C490.84 291.42 482.86 300.982 476.537 310.225L440.795 362.681C431.082 377.193 421.858 392.077 412.276 406.683Q373.126 465.257 334.982 524.49C314.125 556.193 286.115 577.463 248.564 585.158C246.743 585.469 244.899 585.676 243.064 585.886C225.118 587.939 206.227 583.104 192.083 571.709Q190.803 570.694 189.576 569.616Q188.349 568.538 187.177 567.4Q186.006 566.261 184.893 565.065Q183.781 563.87 182.73 562.619Q181.679 561.369 180.692 560.068Q179.705 558.766 178.785 557.416Q177.864 556.067 177.013 554.673Q176.162 553.278 175.382 551.843Q174.602 550.408 173.895 548.936Q173.189 547.463 172.557 545.957Q171.925 544.45 171.37 542.914Q170.814 541.378 170.337 539.816Q169.86 538.254 169.462 536.67Q169.063 535.086 168.745 533.483Q168.427 531.881 168.19 530.265Q167.953 528.649 167.798 527.023C165.725 506.427 169.039 483.916 176.9 464.798C179.784 457.783 184.043 451.294 187.951 444.811L207.162 413.474Q253.545 337.559 302.466 263.253C310.105 251.516 317.779 239.75 325.162 227.851C330.705 218.917 335.749 209.536 342.418 201.37Q343.349 200.245 344.308 199.143Q345.266 198.04 346.251 196.962Q347.236 195.884 348.248 194.83Q349.259 193.776 350.296 192.747Q351.332 191.718 352.394 190.715Q353.456 189.712 354.542 188.736Q355.628 187.759 356.737 186.809Q357.847 185.859 358.98 184.937Q360.112 184.015 361.267 183.12Q362.422 182.226 363.598 181.36Q364.774 180.495 365.972 179.658Q367.169 178.821 368.386 178.014Q369.604 177.207 370.84 176.43Q372.077 175.653 373.333 174.907Q374.588 174.16 375.861 173.445Q377.135 172.73 378.425 172.046Q379.716 171.362 381.023 170.71Q382.33 170.057 383.652 169.437Q384.975 168.817 386.312 168.23Q387.649 167.643 389.001 167.088Q390.352 166.534 391.716 166.013Q393.081 165.492 394.458 165.004Q395.835 164.517 397.223 164.063Q398.611 163.61 400.01 163.19Q401.409 162.771 402.818 162.386Q404.227 162.001 405.645 161.65Q407.063 161.3 408.489 160.984Q409.915 160.669 411.349 160.388Q412.782 160.108 414.222 159.863Q415.662 159.617 417.107 159.408Q418.553 159.198 420.003 159.023Q421.453 158.849 422.907 158.71Z"/>
	<path fill="#292929" d="M224.303 392.712C237.367 400.603 252.203 406.392 266.009 412.873C284.855 421.719 303.406 431.188 322.228 440.085C338.167 447.62 354.771 454.548 370.167 463.147C365.068 472.83 358.166 482.184 352.204 491.383C334.778 518.27 321.564 541.662 295.235 561.368C283.182 569.907 269.817 576.552 255.41 580.028C236.515 584.587 216.231 582.853 199.475 572.467C185.931 564.072 176.676 550.407 173.07 534.978C168.398 514.986 171.727 487.058 179.438 467.946C183.79 457.157 191.04 446.969 197.11 437.057Q210.53 414.776 224.303 392.712Z"/>
	<path fill="#FBFBFA" d="M243.855 464.203C255.723 462.762 269.004 466.371 278.72 473.256C288.608 480.263 295.344 491.674 297.22 503.599C299.351 517.146 295.163 531.572 287.013 542.485C276.308 556.817 261.094 564.833 243.616 567.428C230.189 568.28 216.781 564.887 206.221 556.279Q205.316 555.55 204.449 554.777Q203.582 554.004 202.755 553.188Q201.928 552.372 201.143 551.516Q200.357 550.66 199.616 549.765Q198.875 548.871 198.18 547.94Q197.484 547.009 196.837 546.045Q196.189 545.081 195.59 544.085Q194.992 543.089 194.444 542.065Q193.896 541.04 193.4 539.99Q192.905 538.939 192.462 537.865Q192.02 536.79 191.632 535.695Q191.244 534.6 190.912 533.487Q190.58 532.374 190.304 531.245Q190.028 530.117 189.809 528.976Q189.59 527.835 189.428 526.685Q189.267 525.534 189.163 524.377C187.815 510.356 193.002 496.449 201.916 485.72C212.44 473.054 227.616 465.793 243.855 464.203Z"/>
	<path fill="#292929" d="M244.6 468.203C244.837 468.179 245.074 468.152 245.311 468.13C256.977 467.074 269.945 471.378 278.785 478.992Q279.586 479.673 280.352 480.393Q281.118 481.113 281.847 481.871Q282.576 482.628 283.266 483.421Q283.956 484.214 284.606 485.041Q285.256 485.868 285.863 486.726Q286.47 487.584 287.034 488.472Q287.598 489.359 288.116 490.274Q288.634 491.188 289.107 492.128Q289.579 493.067 290.003 494.029Q290.427 494.991 290.803 495.973Q291.179 496.955 291.505 497.954Q291.831 498.954 292.107 499.968Q292.382 500.983 292.607 502.01Q292.831 503.037 293.004 504.074Q293.177 505.111 293.297 506.155Q293.418 507.2 293.486 508.249C294.372 521.599 288.672 535.069 279.975 545.01C269.96 556.457 256.714 562.706 241.623 563.737C230.173 565.023 217.975 560.852 209.038 553.786C199.987 546.629 194.571 536.358 193.331 524.916Q193.208 523.71 193.146 522.5Q193.083 521.29 193.08 520.078Q193.077 518.866 193.133 517.656Q193.19 516.446 193.307 515.239Q193.423 514.033 193.599 512.834Q193.775 511.635 194.01 510.447Q194.245 509.258 194.538 508.082Q194.831 506.906 195.182 505.746Q195.533 504.586 195.941 503.445Q196.349 502.304 196.812 501.185Q197.276 500.065 197.794 498.97Q198.312 497.874 198.884 496.806Q199.456 495.737 200.08 494.699Q200.704 493.66 201.378 492.653Q202.052 491.646 202.775 490.674Q203.499 489.701 204.269 488.766C214.317 476.538 229.002 469.693 244.6 468.203Z"/>
	<path fill="#535353" d="M241.75 475.162C252.776 474.052 263.456 475.713 272.552 482.392C280.221 488.024 284.794 496.762 286.164 506.092Q286.314 507.171 286.411 508.255Q286.508 509.34 286.55 510.428Q286.593 511.516 286.582 512.605Q286.571 513.694 286.505 514.781Q286.44 515.868 286.321 516.951Q286.202 518.033 286.03 519.109Q285.857 520.184 285.632 521.249Q285.406 522.315 285.128 523.368Q284.85 524.42 284.52 525.458Q284.19 526.496 283.809 527.516Q283.428 528.536 282.997 529.536Q282.565 530.536 282.085 531.514Q281.605 532.491 281.077 533.444Q280.549 534.396 279.974 535.321Q279.4 536.246 278.78 537.142Q278.16 538.037 277.497 538.901C269.189 549.762 257.562 555.562 244.179 557.318C234.037 558.53 222.786 555.535 214.556 549.494C206.616 543.665 201.462 535.828 199.994 526.029Q199.842 525.001 199.74 523.966Q199.639 522.931 199.59 521.893Q199.54 520.854 199.542 519.815Q199.544 518.775 199.597 517.737Q199.65 516.699 199.755 515.664Q199.86 514.63 200.016 513.602Q200.172 512.574 200.379 511.555Q200.586 510.537 200.843 509.529Q201.101 508.522 201.408 507.529Q201.714 506.535 202.07 505.558Q202.426 504.582 202.83 503.624Q203.233 502.666 203.684 501.729Q204.135 500.792 204.632 499.879Q205.129 498.965 205.67 498.078Q206.212 497.19 206.796 496.331Q207.381 495.471 208.008 494.642C216.196 483.693 228.384 477.155 241.75 475.162Z"/>
	<path fill="#292929" d="M423.839 162.708Q425.462 162.586 427.09 162.537Q428.717 162.487 430.345 162.51Q431.973 162.533 433.598 162.628Q435.223 162.722 436.842 162.889Q438.462 163.056 440.072 163.294Q441.683 163.533 443.281 163.842Q444.879 164.152 446.462 164.532Q448.045 164.912 449.61 165.361Q451.174 165.811 452.718 166.33Q454.261 166.849 455.779 167.435Q457.298 168.022 458.789 168.675Q460.28 169.329 461.741 170.047Q463.202 170.766 464.629 171.549Q466.056 172.332 467.448 173.177Q468.839 174.022 470.192 174.929Q471.544 175.835 472.855 176.8C488.234 188.027 496.832 204.09 499.735 222.748C502.516 240.622 499.545 261.554 492.381 278.124C487.34 289.786 479.054 299.882 471.854 310.263Q456.819 331.852 442.14 353.685L396.124 423.862C388.456 435.561 381.104 447.613 372.807 458.871C356.879 452.341 341.152 444.396 325.682 436.825C305.434 426.672 285.046 417.045 264.591 407.332C251.905 401.308 239.354 394.964 226.493 389.32C232.909 378.005 240.27 367.067 247.197 356.046Q272.845 315.527 298.96 275.307L328.16 229.801C334.041 220.558 339.318 210.753 346.391 202.346C365.161 180.037 394.857 165.103 423.839 162.708Z"/>
	<path fill="#1B1B1B" d="M344.041 412.15L344.454 411.063C346.822 410.1 350.114 411.326 352.343 412.265C355.927 413.774 359.352 416.433 360.641 420.226C361.445 422.595 361.447 425.862 360.299 428.128C359.011 430.67 356.04 432.814 353.348 433.626C352.054 434.016 350.986 434.089 349.748 433.493L349.397 432.586L350.001 431.227C352.659 430.184 356.057 428.17 357.313 425.474C357.911 424.192 357.878 422.776 357.384 421.465C355.531 416.542 348.493 414.12 344.041 412.15Z"/>
	<path fill="#FBFBFA" d="M350.001 431.227C346.047 429.718 339.453 426.91 336.348 424.103C335.429 423.271 335.221 422.567 335.198 421.347C335.139 418.362 338.171 414.61 340.358 412.874C341.653 411.846 342.518 412.044 344.041 412.15C348.493 414.12 355.531 416.542 357.384 421.465C357.878 422.776 357.911 424.192 357.313 425.474C356.057 428.17 352.659 430.184 350.001 431.227Z"/>
	<path fill="#FBFBFA" d="M316.366 400.403C320.996 400.289 327.682 403.06 331.093 406.22C332.002 407.062 332.886 408.271 332.85 409.559C332.754 413.043 328.676 416.882 326.385 419.324C326.243 419.355 326.103 419.403 325.958 419.418C322.462 419.773 314.264 414.941 311.569 412.584C310.78 411.893 310.112 411.126 310.158 410.035C310.308 406.523 314.013 402.793 316.366 400.403Z"/>
	<path fill="#FBFBFA" d="M291.626 388.878C292.58 388.861 292.624 388.836 293.571 388.912C297.536 389.23 304.231 391.972 306.69 395.227C307.727 396.6 308.164 398.27 307.868 399.972C307.285 403.315 304.302 405.69 301.673 407.49C297.686 407.364 290.832 404.472 288.034 401.8C286.805 400.626 285.985 399.209 285.974 397.468C285.951 393.759 289.154 391.207 291.626 388.878Z"/>
	<path fill="#FBFBFA" d="M267.59 375.977C269.833 376.378 271.817 377.197 273.913 378.06C277.187 379.408 282.047 381.147 283.357 384.791C283.904 386.314 283.621 388.005 282.924 389.43C281.471 392.399 279.721 394.244 276.621 395.352C275.628 395.212 274.696 395.037 273.734 394.747C269.266 393.397 262.431 390.707 260.355 386.239C259.714 384.86 259.621 383.277 260.267 381.88C261.454 379.316 265.031 376.925 267.59 375.977Z"/>
	<path fill="#FBFBFA" d="M397.926 225.939C398.064 225.925 398.201 225.9 398.339 225.895C401.318 225.793 405.58 227.529 407.598 229.714C408.534 230.727 408.882 232.068 408.759 233.416C408.349 237.888 403 245.343 399.845 248.387C397.091 251.044 393.615 253.176 390.569 255.508Q382.429 261.777 374.539 268.359C377.508 270.162 381.966 270.868 383.629 274.093C383.72 275.6 383.456 276.139 382.758 277.412C381.461 278.029 381.256 277.745 379.854 277.338C375.168 275.363 370.652 272.731 366.243 270.208C371.616 262.134 379.266 256.688 387.203 251.342C390.444 249.16 393.923 247.063 396.663 244.252C399.401 241.444 401.179 237.97 403.105 234.592C400.981 233.243 398.716 232.657 396.539 231.506C395.35 230.876 394.888 230.483 394.438 229.228C395.034 227.555 396.513 226.866 397.926 225.939Z"/>
	<path fill="#FBFBFA" d="M468.772 259.812C469.935 260.003 470.848 260.368 471.571 261.343C472.093 262.045 471.846 262.297 471.725 263.099C467.652 268.623 449.895 286.149 444.288 289.716C445.934 290.526 447.634 291.238 449.312 291.979C450.048 290.397 450.824 288.745 451.802 287.299C452.643 286.054 454.094 284.551 455.721 284.591C456.987 284.622 459.124 285.74 459.989 286.649C461.099 287.816 456.097 292.382 455.947 294.5L457.361 296.089C457.277 297.265 457.006 297.584 456.391 298.556C455.636 299.035 455.123 299.401 454.209 299.497C453.727 299.548 453.242 299.57 452.764 299.647L452.206 299.741L446.123 309.122C444.295 308.308 442.986 307.921 442.025 306.111C442.148 302.967 445.218 300.026 447.066 297.603Q441.482 294.546 436.046 291.233C436.681 290.042 437.327 288.703 438.246 287.704C441.194 284.498 445.249 281.867 448.479 278.875C455.269 272.585 461.523 265.567 468.772 259.812Z"/>
	<path fill="#FBFBFA" d="M438.271 244.903C441.889 246.469 445.34 248.19 448.8 250.08C445.999 257.061 442.176 264.118 437.47 270.01C436.605 270.259 435.859 270.399 434.96 270.451C434.075 271.74 434.32 273.41 433.568 274.87C430.819 280.205 426.099 288.99 421.651 292.91C420.557 293.874 418.766 294.326 417.405 294.789C414.279 293.468 408.098 291.739 406.76 288.423C405.77 285.97 407.161 283.057 408.349 280.946C409.162 279.499 409.819 278.72 411.418 278.125C412.03 277.876 412.578 277.712 413.235 277.625C414.099 277.51 414.976 277.438 415.812 277.175C421.566 275.364 419.501 268.11 422.006 263.973C422.625 262.951 423.071 262.643 424.197 262.348C425.108 263.123 425.042 263.285 425.293 264.476C427.822 265.487 430.313 266.37 432.931 267.126C436.428 262.944 438.96 257.937 441.735 253.257L434.031 249.396C435.397 247.855 436.716 246.258 438.271 244.903Z"/>
	<path fill="#292929" d="M411.418 278.125C412.03 277.876 412.578 277.712 413.235 277.625C414.099 277.51 414.976 277.438 415.812 277.175C421.566 275.364 419.501 268.11 422.006 263.973C422.625 262.951 423.071 262.643 424.197 262.348C425.108 263.123 425.042 263.285 425.293 264.476C424.29 265.877 423.55 266.881 423.256 268.599C423.911 271.166 426.351 272.274 428.427 273.634L418.836 289.11C416.255 288.267 414.088 287.304 411.865 285.738C412.842 284.183 414.413 282.356 414.203 280.451C413.366 279.285 412.624 278.842 411.418 278.125Z"/>
	<path fill="#FBFBFA" d="M371.491 212.829C372.23 212.8 373.031 212.855 373.751 213.043C376.689 213.811 380.716 215.254 382.171 218.119C383.254 220.252 382.849 222.761 382.039 224.913C380.653 228.596 374.973 237.892 371.243 239.24C370.97 239.338 370.684 239.397 370.414 239.505C369.142 240.012 368.906 240.042 368.459 241.253C368.637 241.478 369.302 242.294 369.403 242.53C370.102 244.169 360.296 259.185 358.649 261.794C357.543 263.548 356.099 263.472 354.228 263.893L353.007 264.416C350.656 263.767 347.993 263.12 345.938 261.76C344.184 260.599 342.59 258.746 342.28 256.608C341.819 253.427 351.264 238.409 353.909 235.843C355.117 234.672 356.658 235.737 357.922 234.163C357.824 233.232 357.721 232.256 357.828 231.321C358.179 228.263 364.837 218.615 367.107 216.155C368.322 214.837 370.003 213.816 371.491 212.829Z"/>
	<path fill="#292929" d="M370.487 218.353C373.151 219.405 375.583 220.623 378.083 222.014C375.332 227.284 372.766 232.823 368.73 237.249C366.046 236.149 363.767 234.806 361.335 233.247Q366.062 225.892 370.487 218.353Z"/>
	<path fill="#292929" d="M358.181 238.33C360.638 239.484 362.764 240.715 364.991 242.266C361.588 248.418 357.756 254.575 353.92 260.463C351.657 258.335 349.339 256.907 346.624 255.46Q352.321 246.84 358.181 238.33Z"/>
	<path fill="#FBFBFA" d="M322.481 284.618C327.181 284.291 331.584 284.512 336.09 285.98C343.664 288.449 406.789 319.903 412.807 324.984C417.354 328.822 420.489 333.746 420.962 339.765C421.204 342.846 420.661 345.827 419.612 348.718C417.62 354.207 405.296 374.45 401.196 379.033C396.884 383.854 392.297 385.29 386.052 385.691C368.55 384.889 317.943 361.502 301.123 352.79C295.14 349.691 289.142 345.291 287.16 338.503C285.322 332.208 287.083 326.287 290.223 320.764C294.825 312.673 304.698 295.131 311.389 289.74C314.772 287.015 318.374 285.744 322.481 284.618Z"/>
	<path fill="#1B1B1B" d="M348.573 310.667C351.623 310.767 354.728 311.169 357.371 312.813C361.255 315.23 362.843 319.01 363.754 323.319C367.829 322.131 371.813 321.755 375.843 323.339C379.249 324.678 382.352 327.371 383.643 330.857C384.707 333.73 384.401 336.877 383.081 339.612C379.544 346.94 371.196 349.266 364.136 351.782C358.072 353.862 344.656 358.867 338.775 356.182C335.245 352.558 334.368 346.892 333.568 342.07C332.241 334.069 331.349 323.534 336.539 316.648C339.668 312.496 343.663 311.326 348.573 310.667Z"/>
	<path fill="#FBFBFA" d="M347.411 315.547C349.422 315.508 351.361 315.552 353.278 316.244C360.925 319.005 354.95 327.491 357.234 332.198C361.067 332.685 366.81 325.147 374.056 327.245C375.554 327.679 376.637 328.748 377.366 330.089C378.559 332.278 379.094 335.266 378.232 337.659C376.915 341.317 373.325 342.981 370.054 344.484C361.2 348.004 351.229 351.106 341.703 351.686C341.681 351.631 341.659 351.577 341.638 351.522C338.749 343.849 335.494 329.142 339.239 321.49C341.061 317.766 343.65 316.726 347.411 315.547Z"/>
</svg>
